<?xml version="1.0" encoding="UTF-8" standalone="no"?>
<!-- Created with Inkscape (http://www.inkscape.org/) -->

<svg
   width="14in"
   height="8.5in"
   viewBox="0 0 355.6 215.9"
   version="1.1"
   id="svg5"
   inkscape:version="1.1 (c68e22c387, 2021-05-23)"
   sodipodi:docname="paw.svg"
   xmlns:inkscape="http://www.inkscape.org/namespaces/inkscape"
   xmlns:sodipodi="http://sodipodi.sourceforge.net/DTD/sodipodi-0.dtd"
   xmlns="http://www.w3.org/2000/svg"
   xmlns:svg="http://www.w3.org/2000/svg">
  <sodipodi:namedview
     id="namedview7"
     pagecolor="#ffffff"
     bordercolor="#999999"
     borderopacity="1"
     inkscape:pageshadow="0"
     inkscape:pageopacity="0"
     inkscape:pagecheckerboard="0"
     inkscape:document-units="mm"
     showgrid="false"
     units="in"
     inkscape:zoom="0.5052024"
     inkscape:cx="556.21272"
     inkscape:cy="480.00564"
     inkscape:window-width="1920"
     inkscape:window-height="991"
     inkscape:window-x="-9"
     inkscape:window-y="-9"
     inkscape:window-maximized="1"
     inkscape:current-layer="layer1" />
  <defs
     id="defs2" />
  <g
     inkscape:label="Capa 1"
     inkscape:groupmode="layer"
     id="layer1">
    <g
       transform="matrix(0.03527778,0,0,-0.03527778,3.2874623,184.02337)"
       fill="#000000"
       stroke="none"
       id="g936">
      <path
         d="m 435,3935 c -43,-43 -45,-47 -45,-105 0,-51 4,-65 24,-85 37,-37 73,-42 121,-16 82,44 112,157 59,220 -22,26 -33,31 -70,31 -39,0 -50,-5 -89,-45 z"
         id="path826" />
      <path
         d="m 734,3926 c -55,-56 -60,-69 -56,-146 2,-25 11,-43 34,-62 37,-32 74,-36 121,-12 104,53 148,167 91,241 -23,30 -29,33 -80,33 -54,0 -57,-2 -110,-54 z"
         id="path828" />
      <path
         d="m 3302,3957 c -36,-25 -72,-89 -72,-131 0,-56 52,-116 100,-116 38,0 102,47 126,92 8,15 14,47 14,71 0,92 -89,137 -168,84 z"
         id="path830" />
      <path
         d="m 3615,3961 c -74,-43 -115,-153 -81,-216 34,-63 99,-72 172,-22 59,39 81,76 88,144 4,47 2,56 -24,83 -24,26 -35,30 -77,29 -26,0 -61,-8 -78,-18 z"
         id="path832" />
      <path
         d="m 6153,3960 c -41,-24 -73,-87 -73,-141 0,-35 6,-47 36,-75 20,-20 46,-34 60,-34 52,0 117,58 134,120 30,112 -62,188 -157,130 z"
         id="path834" />
      <path
         d="m 6475,3968 c -63,-34 -105,-104 -105,-171 0,-37 6,-50 32,-76 38,-37 80,-41 134,-10 72,40 104,90 104,162 0,45 -4,59 -26,81 -21,21 -36,26 -73,26 -25,0 -55,-6 -66,-12 z"
         id="path836" />
      <path
         d="m 8982,3942 c -20,-20 -43,-56 -51,-79 -12,-36 -12,-47 1,-80 19,-47 71,-79 111,-69 41,10 102,70 117,115 15,47 9,79 -26,120 -22,26 -33,31 -70,31 -38,0 -49,-5 -82,-38 z"
         id="path838" />
      <path
         d="m 9305,3958 c -16,-12 -33,-28 -38,-35 -4,-6 -13,-18 -20,-25 -21,-22 -40,-94 -33,-124 4,-15 21,-40 38,-56 53,-49 127,-33 192,44 55,63 60,144 13,196 -28,31 -109,31 -152,0 z"
         id="path840" />
      <path
         d="m 1014,3754 c -38,-9 -102,-72 -120,-119 -22,-59 -11,-101 35,-132 39,-26 74,-29 122,-9 104,43 154,164 96,231 -23,27 -82,40 -133,29 z"
         id="path842" />
      <path
         d="m 3865,3753 c -34,-9 -86,-50 -106,-81 -56,-94 -14,-192 83,-192 38,0 107,41 143,85 25,31 30,46 30,91 0,40 -5,58 -20,74 -21,20 -93,33 -130,23 z"
         id="path844" />
      <path
         d="m 6710,3751 c -69,-17 -130,-95 -130,-163 1,-134 170,-143 258,-14 75,111 3,210 -128,177 z"
         id="path846" />
      <path
         d="m 9554,3754 c -58,-13 -134,-110 -134,-171 0,-51 59,-103 117,-103 44,1 115,43 145,86 38,54 39,130 4,163 -25,23 -86,35 -132,25 z"
         id="path848" />
      <path
         d="m 425,3657 c -65,-18 -138,-61 -162,-97 -29,-41 -29,-94 -2,-139 29,-48 38,-55 108,-90 78,-40 109,-70 146,-144 49,-95 99,-137 166,-137 105,0 179,131 179,316 0,164 -54,253 -173,288 -62,18 -199,20 -262,3 z"
         id="path850" />
      <path
         d="m 3270,3655 c -104,-30 -158,-70 -179,-133 -12,-34 -11,-43 9,-86 25,-51 60,-83 130,-114 68,-31 100,-66 143,-155 39,-78 83,-111 152,-111 81,-1 127,44 165,164 19,57 20,264 2,282 -7,7 -12,20 -12,30 0,34 -82,104 -143,122 -65,19 -201,19 -267,1 z"
         id="path852" />
      <path
         d="m 6103,3651 c -125,-36 -179,-97 -165,-190 6,-45 54,-95 129,-134 77,-40 99,-61 138,-132 62,-114 112,-152 188,-142 72,10 126,86 153,217 23,108 15,189 -29,278 -24,50 -57,77 -130,103 -66,24 -197,24 -284,0 z"
         id="path854" />
      <path
         d="m 8970,3656 c -131,-37 -190,-88 -190,-168 0,-37 6,-52 36,-87 20,-23 59,-53 88,-68 83,-41 113,-69 151,-142 42,-79 63,-104 107,-127 38,-20 100,-14 137,14 60,44 101,164 101,295 0,205 -96,298 -304,296 -45,0 -101,-6 -126,-13 z"
         id="path856" />
      <path
         d="m 1013,3426 c -50,-18 -83,-50 -99,-95 -18,-54 -1,-101 47,-125 42,-21 66,-20 117,4 114,55 125,179 19,219 -33,13 -41,13 -84,-3 z"
         id="path858" />
      <path
         d="m 3861,3427 c -106,-34 -142,-160 -61,-214 41,-29 68,-29 125,-2 106,50 125,167 35,211 -40,20 -52,20 -99,5 z"
         id="path860" />
      <path
         d="m 6710,3427 c -19,-6 -51,-28 -72,-49 -33,-33 -38,-44 -38,-82 0,-37 5,-48 31,-70 41,-35 73,-41 120,-26 45,15 105,76 115,116 10,40 -19,91 -62,109 -41,17 -46,17 -94,2 z"
         id="path862" />
      <path
         d="m 9551,3425 c -41,-14 -98,-73 -107,-111 -14,-57 49,-124 117,-124 36,0 104,40 127,75 44,69 23,136 -51,164 -33,13 -41,13 -86,-4 z"
         id="path864" />
      <path
         d="m 1994,2551 c -56,-24 -71,-115 -30,-185 32,-55 77,-86 134,-93 42,-5 52,-2 80,22 29,24 32,32 32,83 0,66 -20,106 -73,146 -37,28 -108,42 -143,27 z"
         id="path866" />
      <path
         d="m 2333,2553 c -62,-12 -86,-126 -40,-193 50,-74 145,-89 187,-31 23,33 27,108 8,144 -16,28 -68,77 -82,77 -6,0 -20,2 -31,4 -11,2 -30,2 -42,-1 z"
         id="path868" />
      <path
         d="m 4843,2550 c -29,-12 -63,-67 -63,-100 1,-39 42,-110 84,-144 32,-26 47,-31 91,-31 61,0 86,17 102,70 19,59 -15,141 -77,185 -33,23 -105,34 -137,20 z"
         id="path870" />
      <path
         d="m 5185,2551 c -68,-21 -93,-86 -61,-162 46,-110 184,-131 216,-34 34,103 -63,225 -155,196 z"
         id="path872" />
      <path
         d="m 7695,2551 c -76,-32 -83,-137 -13,-216 67,-76 169,-87 208,-22 69,113 -74,287 -195,238 z"
         id="path874" />
      <path
         d="m 8033,2553 c -31,-6 -73,-59 -73,-93 0,-56 13,-91 47,-125 59,-59 134,-56 173,7 26,43 25,84 -3,132 -34,61 -87,89 -144,79 z"
         id="path876" />
      <path
         d="m 1764,2321 c -46,-28 -58,-73 -38,-133 37,-111 186,-168 251,-95 60,66 19,178 -82,226 -55,26 -91,27 -131,2 z"
         id="path878" />
      <path
         d="m 4610,2318 c -102,-69 -22,-239 118,-254 57,-6 89,9 115,54 18,30 18,38 7,75 -15,47 -85,127 -111,127 -10,0 -21,5 -24,10 -11,18 -71,11 -105,-12 z"
         id="path880" />
      <path
         d="m 7447,2309 c -32,-26 -37,-36 -37,-71 0,-53 34,-111 84,-145 33,-22 53,-27 100,-27 53,-1 60,2 82,29 58,72 7,184 -103,230 -53,22 -84,18 -126,-16 z"
         id="path882" />
      <path
         d="m 2248,2241 c -64,-9 -138,-48 -166,-89 -39,-56 -47,-94 -47,-212 0,-139 20,-203 81,-267 37,-39 45,-43 91,-43 71,0 108,28 159,120 51,94 74,117 158,159 108,54 149,134 111,214 -41,86 -218,140 -387,118 z"
         id="path884" />
      <path
         d="m 5088,2239 c -73,-11 -109,-29 -148,-76 -46,-55 -60,-104 -60,-218 0,-138 30,-231 93,-287 25,-23 40,-28 79,-28 76,0 116,31 163,124 39,77 76,113 159,156 77,39 126,100 126,155 0,36 -32,89 -70,117 -66,48 -226,75 -342,57 z"
         id="path886" />
      <path
         d="m 7932,2239 c -112,-19 -162,-66 -201,-188 -15,-47 -14,-160 3,-224 37,-141 87,-197 175,-197 47,0 55,3 94,43 23,23 53,65 66,92 31,68 63,99 139,137 35,18 80,50 98,72 29,34 34,47 34,92 0,48 -4,57 -38,92 -66,67 -237,105 -370,81 z"
         id="path888" />
      <path
         d="m 1757,1987 c -58,-46 -40,-148 34,-191 51,-29 131,-27 164,4 35,33 35,100 -1,147 -47,62 -145,82 -197,40 z"
         id="path890" />
      <path
         d="m 4603,1984 c -29,-23 -33,-31 -33,-75 0,-44 4,-53 39,-88 48,-48 107,-61 164,-37 83,34 72,149 -18,201 -56,33 -110,33 -152,-1 z"
         id="path892" />
      <path
         d="m 7465,1998 c -35,-19 -55,-52 -55,-91 0,-31 7,-45 44,-81 34,-35 54,-46 89,-51 108,-16 172,72 115,160 -42,63 -137,94 -193,63 z"
         id="path894" />
      <path
         d="m 495,1128 c -65,-18 -105,-75 -105,-150 0,-46 4,-58 28,-81 76,-73 202,8 202,129 0,80 -52,123 -125,102 z"
         id="path896" />
      <path
         d="m 780,1118 c -26,-13 -56,-40 -71,-63 -83,-123 -4,-245 126,-195 118,45 157,218 60,265 -44,20 -63,19 -115,-7 z"
         id="path898" />
      <path
         d="m 3652,1132 c -63,-20 -132,-109 -132,-172 0,-34 20,-79 44,-99 24,-20 90,-16 134,9 126,71 133,250 11,265 -19,2 -44,1 -57,-3 z"
         id="path900" />
      <path
         d="m 6474,1115 c -86,-43 -128,-142 -93,-219 21,-45 99,-62 156,-33 32,17 75,61 92,94 16,32 14,110 -5,138 -14,21 -60,45 -89,45 -6,0 -33,-11 -61,-25 z"
         id="path902" />
      <path
         d="m 9324,1121 c -61,-28 -114,-106 -114,-170 0,-41 35,-89 72,-99 63,-16 126,10 175,75 24,31 28,46 28,98 0,66 -12,87 -60,105 -37,14 -54,12 -101,-9 z"
         id="path904" />
      <path
         d="m 3298,1107 c -62,-52 -84,-128 -53,-187 19,-36 43,-50 90,-50 104,0 176,150 109,229 -22,27 -33,31 -72,31 -34,0 -54,-6 -74,-23 z"
         id="path906" />
      <path
         d="m 6149,1107 c -43,-28 -69,-80 -69,-135 0,-85 85,-129 162,-84 46,27 72,78 72,140 0,47 -4,58 -27,78 -37,31 -92,32 -138,1 z"
         id="path908" />
      <path
         d="m 9005,1118 c -48,-28 -89,-112 -79,-161 3,-15 17,-41 31,-57 56,-68 171,-20 202,84 15,52 4,97 -31,129 -23,20 -92,23 -123,5 z"
         id="path910" />
      <path
         d="m 985,891 c -138,-86 -134,-251 7,-251 56,0 91,16 129,57 37,39 49,66 49,108 0,40 -14,73 -39,92 -25,19 -111,16 -146,-6 z"
         id="path912" />
      <path
         d="m 3819,882 c -62,-39 -83,-75 -83,-139 0,-74 28,-103 101,-103 101,0 178,73 178,168 0,46 -4,57 -28,78 -41,35 -109,33 -168,-4 z"
         id="path914" />
      <path
         d="m 6682,895 c -64,-35 -102,-95 -102,-159 1,-66 36,-96 115,-96 63,0 116,35 154,104 31,54 27,98 -10,135 -27,27 -37,31 -82,30 -29,-1 -62,-7 -75,-14 z"
         id="path916" />
      <path
         d="m 9520,889 c -46,-29 -75,-63 -90,-109 -26,-79 19,-140 102,-140 61,0 96,18 142,72 31,36 36,48 36,93 0,43 -5,57 -26,79 -35,34 -112,37 -164,5 z"
         id="path918" />
      <path
         d="M 415,808 C 301,769 240,712 240,647 c 0,-69 47,-127 136,-167 65,-30 107,-71 143,-142 42,-82 50,-92 94,-117 60,-34 127,-23 167,26 51,62 80,164 80,279 0,157 -51,242 -169,282 -41,14 -234,14 -276,0 z"
         id="path920" />
      <path
         d="m 3254,805 c -95,-30 -142,-68 -164,-134 -24,-73 30,-141 168,-212 46,-23 75,-57 111,-129 30,-61 40,-73 85,-104 43,-29 84,-33 124,-12 47,24 102,97 102,134 0,10 5,23 12,30 7,7 11,54 11,134 0,108 -2,129 -23,171 -27,56 -78,103 -135,123 -50,17 -234,17 -291,-1 z"
         id="path922" />
      <path
         d="m 6105,808 c -121,-42 -167,-88 -167,-169 1,-67 33,-108 122,-156 80,-42 116,-76 140,-128 71,-156 192,-201 275,-103 31,36 60,103 69,158 17,96 18,136 6,193 -23,108 -59,158 -138,193 -46,21 -67,24 -165,23 -62,-1 -125,-6 -142,-11 z"
         id="path924" />
      <path
         d="m 8955,808 c -155,-53 -212,-142 -154,-238 26,-42 38,-51 107,-86 75,-37 109,-69 142,-134 66,-132 143,-177 229,-134 40,20 74,73 101,158 17,53 21,82 17,158 -5,113 -12,142 -46,190 -27,38 -63,64 -116,85 -37,14 -239,15 -280,1 z"
         id="path926" />
      <path
         d="M 1013,579 C 974,568 911,505 908,476 c -3,-47 5,-72 30,-98 21,-23 34,-28 74,-28 119,0 203,129 133,204 -13,14 -28,26 -32,27 -4,0 -21,2 -38,4 -16,1 -45,-1 -62,-6 z"
         id="path928" />
      <path
         d="m 3860,578 c -99,-28 -142,-157 -70,-208 38,-27 102,-26 151,2 89,50 103,152 27,198 -36,22 -55,23 -108,8 z"
         id="path930" />
      <path
         d="m 6701,575 c -52,-17 -101,-79 -101,-127 0,-58 42,-98 105,-98 25,0 58,6 73,14 46,24 92,88 92,127 0,32 -37,76 -73,87 -39,12 -53,12 -96,-3 z"
         id="path932" />
      <path
         d="m 9531,569 c -41,-18 -91,-87 -91,-125 0,-11 14,-36 31,-57 28,-34 35,-37 80,-37 60,0 99,19 133,63 36,47 35,105 0,141 -15,14 -34,27 -43,28 -57,5 -75,3 -110,-13 z"
         id="path934" />
    </g>
    <path
       style="opacity:0.704871;fill:#434d54;fill-opacity:1;stroke-width:0.370906;stroke-linejoin:round;paint-order:markers stroke fill"
       d="m 24.726559,75.350003 c -0.692076,-0.465807 -1.925807,-1.95562 -2.741623,-3.310697 -1.925875,-3.198881 -3.129055,-4.42069 -5.705675,-5.794015 -2.50122,-1.333134 -3.273142,-2.117561 -3.911727,-3.975086 -0.92124,-2.679703 0.108728,-4.333283 3.844655,-6.172473 2.271318,-1.118166 2.67508,-1.194059 6.322453,-1.188389 5.638287,0.0088 7.960167,1.055177 9.745036,4.391835 0.71741,1.341138 0.816991,2.09152 0.816991,6.156348 0,4.402744 -0.05431,4.73768 -1.110972,6.850997 -1.837466,3.674927 -4.598943,4.83195 -7.259138,3.04148 z"
       id="path8225" />
    <path
       style="opacity:0.704871;fill:#434d54;fill-opacity:1;stroke-width:0.185454;stroke-linejoin:round;paint-order:markers stroke fill"
       d="m 37.63314,61.025176 c -1.179195,-0.286049 -2.327589,-1.16327 -2.847387,-2.175023 -0.678011,-1.319697 0.155945,-3.693999 1.910053,-5.438005 1.375299,-1.36738 2.304907,-1.842042 3.605017,-1.840746 1.494708,0.0016 2.414654,0.316103 3.189245,1.090695 1.206556,1.206555 1.324084,2.916263 0.333888,4.857204 -1.094443,2.14529 -4.304881,3.963366 -6.190816,3.505875 z"
       id="path8264" />
    <path
       style="opacity:0.704871;fill:#434d54;fill-opacity:1;stroke-width:0.185454;stroke-linejoin:round;paint-order:markers stroke fill"
       d="m 37.410615,70.831357 c -1.436719,-0.725155 -1.986195,-1.52113 -1.986195,-2.877222 0,-1.248924 0.775925,-2.839416 1.768877,-3.625848 0.936879,-0.742021 2.645029,-1.452893 3.504951,-1.458637 0.898166,-0.006 2.487055,0.821203 3.086204,1.60673 0.761457,0.99832 0.812336,2.498153 0.127436,3.756543 -0.616781,1.133227 -1.227405,1.681888 -2.698062,2.424272 -1.656167,0.83603 -2.422361,0.871116 -3.803211,0.174162 z"
       id="path8303" />
    <path
       style="opacity:0.704871;fill:#434d54;fill-opacity:1;stroke-width:0.262271;stroke-linejoin:round;paint-order:markers stroke fill"
       d="m 29.146014,53.168848 c -1.506368,-0.918491 -2.093315,-2.345976 -1.791674,-4.35746 0.151532,-1.010489 0.455279,-1.486136 1.950056,-3.05366 1.766774,-1.852758 1.774018,-1.856983 3.382968,-1.973363 1.963544,-0.142031 2.74507,0.278562 3.465335,1.864934 0.655481,1.443689 0.629716,2.390257 -0.108186,3.974839 -0.665519,1.429149 -1.960813,2.710187 -3.570877,3.531578 -1.294638,0.660477 -2.259701,0.664284 -3.327622,0.01312 z"
       id="path8342" />
    <path
       style="opacity:0.704871;fill:#434d54;fill-opacity:1;stroke-width:0.262271;stroke-linejoin:round;paint-order:markers stroke fill"
       d="m 18.364,51.978424 -1.081323,-0.976911 v -2.027531 c 0,-2.001962 0.0136,-2.042969 1.07742,-3.251544 2.215502,-2.516944 4.478898,-2.707484 5.988653,-0.504142 1.827213,2.666645 -0.451742,7.13994 -3.871156,7.598582 -0.91703,0.122999 -1.15299,0.0294 -2.113594,-0.838454 z"
       id="path8381" />
    <path
       style="opacity:0.704871;fill:#434d54;fill-opacity:1;stroke-width:0.262271;stroke-linejoin:round;paint-order:markers stroke fill"
       d="m 126.55896,75.916344 c -1.95235,-0.367435 -3.02442,-1.440439 -4.64487,-4.648925 -1.04556,-2.070203 -2.53941,-3.536807 -4.741,-4.654534 -2.36463,-1.200497 -3.67432,-2.421837 -4.48355,-4.181097 -0.58682,-1.275744 -0.59533,-1.380201 -0.20551,-2.52426 1.15988,-3.404036 5.73986,-5.377547 11.82769,-5.096539 2.41373,0.111416 3.20313,0.256093 4.40862,0.80799 1.97927,0.906137 3.31678,2.009249 3.8984,3.215193 0.26541,0.550304 0.60937,1.236223 0.76437,1.524267 0.4085,0.759161 0.53173,6.644889 0.18127,8.657389 -0.87571,5.028697 -3.45444,7.568816 -7.00542,6.900516 z"
       id="path8420" />
    <path
       style="opacity:0.704871;fill:#434d54;fill-opacity:1;stroke-width:0.262271;stroke-linejoin:round;paint-order:markers stroke fill"
       d="m 119.24694,52.396357 c -0.45839,-0.279519 -1.07916,-1.04222 -1.41805,-1.742287 -0.54291,-1.121486 -0.57183,-1.360794 -0.29125,-2.409838 0.66348,-2.480707 2.78415,-4.49276 4.75039,-4.507092 0.84014,-0.0061 2.20371,0.825587 2.76968,1.689364 0.55384,0.845273 0.56672,3.195868 0.0232,4.232111 -0.44664,0.851525 -2.11732,2.506459 -2.97204,2.944032 -0.84708,0.433666 -1.94184,0.354754 -2.86191,-0.20629 z"
       id="path8459" />
    <path
       style="opacity:0.704871;fill:#434d54;fill-opacity:1;stroke-width:0.262271;stroke-linejoin:round;paint-order:markers stroke fill"
       d="m 129.62794,53.346044 c -3.44186,-1.741601 -1.69369,-8.275563 2.49643,-9.330647 1.95044,-0.491125 2.63614,-0.371025 3.77956,0.66199 0.98786,0.892469 1.04805,1.031888 1.04564,2.422192 -0.005,2.751603 -1.42886,4.783068 -4.25099,6.064054 -1.29609,0.588303 -2.16633,0.64 -3.07064,0.182411 z"
       id="path8498" />
    <path
       style="opacity:0.704871;fill:#434d54;fill-opacity:1;stroke-width:0.262271;stroke-linejoin:round;paint-order:markers stroke fill"
       d="m 136.80024,60.534863 c -2.1482,-1.351401 -2.17979,-4.447079 -0.0688,-6.737278 1.5127,-1.641078 3.04583,-2.320951 4.73002,-2.097535 2.59859,0.344715 3.34639,1.13084 3.34639,3.517924 0,3.52548 -5.2812,7.032064 -8.00765,5.316889 z"
       id="path8537" />
    <path
       style="opacity:0.704871;fill:#434d54;fill-opacity:1;stroke-width:0.262271;stroke-linejoin:round;paint-order:markers stroke fill"
       d="m 137.86863,70.738374 c -1.87724,-1.15956 -2.41772,-2.837754 -1.49412,-4.639252 1.29851,-2.532761 4.21324,-3.813534 6.27962,-2.75935 3.34951,1.708796 2.76489,5.358958 -1.17451,7.333279 -1.35807,0.680625 -2.5791,0.702715 -3.61099,0.06532 z"
       id="path8576" />
    <path
       style="opacity:0.704871;fill:#434d54;fill-opacity:1;stroke-width:0.262271;stroke-linejoin:round;paint-order:markers stroke fill"
       d="m 79.735987,126.23163 c -0.859384,-0.34942 -2.990938,-2.80506 -3.53344,-4.07067 -1.14196,-2.66408 -1.338302,-9.20234 -0.361562,-12.04014 0.611649,-1.77708 2.43277,-3.55784 4.434199,-4.33594 1.163881,-0.45248 2.261987,-0.634 4.360206,-0.72077 5.895191,-0.24378 10.828376,1.80853 11.751235,4.88876 0.702004,2.34308 -0.572921,4.45567 -3.828477,6.34391 -2.961993,1.71798 -4.164333,2.88943 -5.775656,5.62731 -0.777529,1.32113 -1.823537,2.76191 -2.324463,3.20173 -1.322117,1.16083 -3.393638,1.64594 -4.722042,1.10581 z"
       id="path8615" />
    <path
       style="opacity:0.704871;fill:#434d54;fill-opacity:1;stroke-width:0.262271;stroke-linejoin:round;paint-order:markers stroke fill"
       d="m 67.297697,120.82374 c -3.050328,-1.31919 -4.064259,-4.7741 -1.946717,-6.63332 0.776626,-0.68189 1.127196,-0.8047 2.283153,-0.79983 2.511031,0.0106 4.529653,1.44443 5.204486,3.69682 0.458979,1.53194 -0.104093,3.07154 -1.351182,3.69453 -1.116454,0.55773 -2.954361,0.57607 -4.18974,0.0418 z"
       id="path8654" />
    <path
       style="opacity:0.704871;fill:#434d54;fill-opacity:1;stroke-width:0.262271;stroke-linejoin:round;paint-order:markers stroke fill"
       d="m 68.51274,110.87452 c -2.791462,-0.88346 -5.1114,-4.50086 -4.355475,-6.79134 0.347318,-1.05239 1.636606,-2.14194 2.813013,-2.37722 1.22306,-0.24461 3.382475,0.59025 4.732454,1.82965 2.023213,1.85748 2.662004,4.14787 1.629239,5.84165 -1.020419,1.67354 -2.656339,2.18179 -4.819231,1.49726 z"
       id="path8693" />
    <path
       style="opacity:0.704871;fill:#434d54;fill-opacity:1;stroke-width:0.262271;stroke-linejoin:round;paint-order:markers stroke fill"
       d="m 76.069965,103.38012 c -1.298754,-0.45398 -2.450346,-1.47209 -3.28959,-2.90828 -0.712339,-1.219025 -0.784707,-1.542702 -0.705718,-3.156528 0.08048,-1.644396 0.160288,-1.862802 0.932892,-2.553123 1.391376,-1.243196 3.812864,-0.957059 5.996649,0.708596 1.192593,0.909635 1.954443,2.526689 2.11135,4.48142 0.13095,1.631365 0.126301,1.644965 -0.920489,2.691755 -0.918954,0.91895 -1.196849,1.04949 -2.195811,1.03143 -0.629039,-0.0114 -1.497216,-0.14424 -1.929283,-0.29527 z"
       id="path8732" />
    <path
       style="opacity:0.704871;fill:#434d54;fill-opacity:1;stroke-width:0.262271;stroke-linejoin:round;paint-order:markers stroke fill"
       d="m 85.996855,102.23285 c -1.742838,-1.13008 -2.332987,-2.245485 -2.332987,-4.409424 0,-1.504792 0.11118,-2.008066 0.592758,-2.683217 1.157936,-1.623377 3.655948,-1.480523 5.448026,0.311552 1.34753,1.347531 1.826311,2.716853 1.563266,4.470964 -0.408647,2.725055 -2.928178,3.829275 -5.271063,2.310125 z"
       id="path8771" />
    <path
       style="opacity:0.704871;fill:#434d54;fill-opacity:1;stroke-width:0.262271;stroke-linejoin:round;paint-order:markers stroke fill"
       d="m 180.22212,126.25528 c -1.64146,-0.4727 -3.62628,-3.43509 -4.233,-6.31785 -0.35391,-1.68159 -0.39419,-7.63844 -0.0594,-8.78585 0.6208,-2.12764 2.34074,-4.29699 4.09818,-5.16902 2.83254,-1.40548 8.80489,-1.25846 13.00712,0.32021 1.61573,0.60698 3.143,2.04943 3.77728,3.56748 0.49094,1.175 0.46336,1.7761 -0.13537,2.94969 -0.72207,1.41538 -1.96139,2.54329 -4.25757,3.87481 -2.57656,1.49412 -3.92423,2.85705 -5.25966,5.31924 -1.35155,2.49192 -2.64247,3.76949 -4.20694,4.16343 -1.29268,0.3255 -1.81863,0.34049 -2.73063,0.0779 z"
       id="path8810" />
    <path
       style="opacity:0.704871;fill:#434d54;fill-opacity:1;stroke-width:0.262271;stroke-linejoin:round;paint-order:markers stroke fill"
       d="m 168.43863,110.63687 c -1.49846,-0.65125 -2.63787,-1.70898 -3.32389,-3.08566 -1.20191,-2.41191 -0.6354,-4.46719 1.4983,-5.43577 1.33362,-0.6054 2.27259,-0.64662 2.95591,-0.12979 0.27957,0.21146 0.70269,0.38821 0.94028,0.39279 0.5477,0.0106 2.8815,2.54749 3.45468,3.75538 0.23871,0.50305 0.43401,1.26236 0.43401,1.68737 0,0.93484 -0.95399,2.42316 -1.84087,2.87192 -0.86001,0.43517 -3.05674,0.40517 -4.11842,-0.0562 z"
       id="path8849" />
    <path
       style="opacity:0.704871;fill:#434d54;fill-opacity:1;stroke-width:0.262271;stroke-linejoin:round;paint-order:markers stroke fill"
       d="m 167.72053,120.85143 c -1.87482,-0.87985 -3.01138,-2.43293 -3.01138,-4.11496 0,-1.57916 0.25955,-2.09822 1.40235,-2.80451 2.44255,-1.50957 6.33982,0.27632 7.25278,3.32354 0.39353,1.31348 -0.16461,2.71806 -1.37279,3.45467 -1.02751,0.62646 -3.09163,0.69472 -4.27096,0.14126 z"
       id="path8888" />
    <path
       style="opacity:0.704871;fill:#434d54;fill-opacity:1;stroke-width:0.262271;stroke-linejoin:round;paint-order:markers stroke fill"
       d="m 176.57726,103.51375 c -1.49566,-0.29115 -4.53606,-4.240865 -4.53606,-5.892696 0,-0.762122 0.95648,-2.456776 1.73008,-3.065296 1.9738,-1.552583 5.91041,0.08997 7.31919,3.053935 1.77993,3.744847 -0.47197,6.690727 -4.51321,5.904057 z"
       id="path8927" />
    <path
       style="opacity:0.704871;fill:#434d54;fill-opacity:1;stroke-width:0.262271;stroke-linejoin:round;paint-order:markers stroke fill"
       d="m 186.83621,102.49869 c -1.88162,-0.97861 -3.01137,-2.861515 -3.01137,-5.018892 0,-3.104094 3.30964,-4.485283 5.8097,-2.42452 2.39757,1.976276 2.76381,5.986972 0.68,7.446522 -0.74735,0.52347 -2.46881,0.52193 -3.47833,-0.003 z"
       id="path8966" />
    <path
       style="opacity:0.704871;fill:#434d54;fill-opacity:1;stroke-width:0.262271;stroke-linejoin:round;paint-order:markers stroke fill"
       d="m 280.63368,126.29883 c -1.64147,-0.4727 -3.62628,-3.43508 -4.233,-6.31784 -0.35391,-1.6816 -0.39419,-7.63845 -0.0594,-8.78586 0.6208,-2.12764 2.34074,-4.29699 4.09818,-5.16902 2.83254,-1.40548 8.80488,-1.25845 13.00712,0.32021 1.61572,0.60698 3.14299,2.04943 3.77728,3.56748 0.49094,1.175 0.46336,1.7761 -0.13537,2.94969 -0.72207,1.41538 -1.96139,2.54329 -4.25757,3.87481 -2.57656,1.49412 -3.92423,2.85705 -5.25966,5.31924 -1.35155,2.49192 -2.64247,3.76949 -4.20694,4.16343 -1.29268,0.3255 -1.81863,0.34049 -2.73063,0.0779 z"
       id="path8810-0" />
    <path
       style="opacity:0.704871;fill:#434d54;fill-opacity:1;stroke-width:0.262271;stroke-linejoin:round;paint-order:markers stroke fill"
       d="m 268.85019,110.68042 c -1.49846,-0.65124 -2.63786,-1.70898 -3.32389,-3.08565 -1.20191,-2.41192 -0.6354,-4.4672 1.4983,-5.43578 1.33362,-0.60539 2.27259,-0.64662 2.95591,-0.12978 0.27957,0.21145 0.70269,0.3882 0.94028,0.39278 0.5477,0.0106 2.8815,2.5475 3.45468,3.75538 0.23871,0.50305 0.43401,1.26236 0.43401,1.68737 0,0.93484 -0.95399,2.42316 -1.84087,2.87192 -0.86001,0.43517 -3.05673,0.40518 -4.11842,-0.0562 z"
       id="path8849-6" />
    <path
       style="opacity:0.704871;fill:#434d54;fill-opacity:1;stroke-width:0.262271;stroke-linejoin:round;paint-order:markers stroke fill"
       d="m 268.13209,120.89498 c -1.87482,-0.87985 -3.01138,-2.43293 -3.01138,-4.11496 0,-1.57916 0.25955,-2.09822 1.40236,-2.80451 2.44254,-1.50957 6.33981,0.27633 7.25277,3.32354 0.39353,1.31348 -0.16461,2.71806 -1.37279,3.45467 -1.02751,0.62646 -3.09163,0.69472 -4.27096,0.14126 z"
       id="path8888-5" />
    <path
       style="opacity:0.704871;fill:#434d54;fill-opacity:1;stroke-width:0.262271;stroke-linejoin:round;paint-order:markers stroke fill"
       d="m 276.98883,103.5573 c -1.49567,-0.29114 -4.53607,-4.240855 -4.53607,-5.892695 0,-0.76212 0.95648,-2.45678 1.73009,-3.0653 1.97379,-1.55258 5.9104,0.09 7.31918,3.05394 1.77993,3.744845 -0.47197,6.690725 -4.5132,5.904055 z"
       id="path8927-1" />
    <path
       style="opacity:0.704871;fill:#434d54;fill-opacity:1;stroke-width:0.262271;stroke-linejoin:round;paint-order:markers stroke fill"
       d="m 287.24777,102.54224 c -1.88162,-0.97861 -3.01137,-2.861515 -3.01137,-5.018895 0,-3.10409 3.30964,-4.48528 5.8097,-2.42452 2.39757,1.97628 2.76381,5.986975 0.68,7.446525 -0.74735,0.52347 -2.46881,0.52193 -3.47833,-0.003 z"
       id="path8966-7" />
    <path
       style="opacity:0.704871;fill:#434d54;fill-opacity:1;stroke-width:0.262271;stroke-linejoin:round;paint-order:markers stroke fill"
       d="m 225.8176,75.546755 c -1.03579,-0.620879 -2.01295,-1.893567 -4.30342,-5.604909 -0.60926,-0.987213 -1.32625,-1.699316 -2.37288,-2.356728 -0.8249,-0.518137 -2.22739,-1.399189 -3.11664,-1.957893 -2.74707,-1.725941 -3.78264,-4.161245 -2.77296,-6.521024 1.17513,-2.746468 5.97915,-4.555125 11.4231,-4.30067 6.04092,0.282358 8.76433,2.646572 9.68461,8.407262 0.58339,3.651891 -0.84362,9.116791 -2.96997,11.373827 -1.67807,1.781198 -3.63852,2.119024 -5.57184,0.960135 z"
       id="path9005" />
    <path
       style="opacity:0.704871;fill:#434d54;fill-opacity:1;stroke-width:0.262271;stroke-linejoin:round;paint-order:markers stroke fill"
       d="m 219.10179,51.587007 c -1.29092,-1.290915 -1.30641,-1.325785 -1.15542,-2.600677 0.33525,-2.830644 2.49316,-5.255918 4.6765,-5.255918 1.11149,0 2.36982,0.85386 2.86498,1.944073 0.66916,1.47334 0.6164,2.438554 -0.22387,4.095388 -0.9036,1.781725 -2.58911,3.125594 -3.92018,3.125594 -0.77104,0 -1.16133,-0.227777 -2.24201,-1.30846 z"
       id="path9044" />
    <path
       style="opacity:0.704871;fill:#434d54;fill-opacity:1;stroke-width:0.262271;stroke-linejoin:round;paint-order:markers stroke fill"
       d="m 229.97505,53.158741 c -1.35907,-0.828636 -1.95256,-1.991845 -1.78886,-3.506055 0.37747,-3.491542 3.29785,-6.196891 6.32155,-5.856076 2.25857,0.254574 3.29437,2.089896 2.72563,4.829501 -0.3636,1.751454 -1.78843,3.454236 -3.70162,4.423719 -1.51302,0.76671 -2.43169,0.79484 -3.5567,0.108911 z"
       id="path9083" />
    <path
       style="opacity:0.704871;fill:#434d54;fill-opacity:1;stroke-width:0.262271;stroke-linejoin:round;paint-order:markers stroke fill"
       d="m 237.61545,60.759384 c -0.29979,-0.121277 -0.85951,-0.594194 -1.24383,-1.050928 -0.56115,-0.666893 -0.69827,-1.097185 -0.69629,-2.185088 0.007,-3.627226 3.97363,-6.711741 7.33635,-5.704247 3.10089,0.92905 3.13066,4.621342 0.0595,7.382565 -1.76861,1.590141 -3.88316,2.193875 -5.45574,1.557698 z"
       id="path9122" />
    <path
       style="opacity:0.704871;fill:#434d54;fill-opacity:1;stroke-width:0.262271;stroke-linejoin:round;paint-order:markers stroke fill"
       d="m 238.3843,70.807377 c -2.05817,-1.01519 -2.76641,-3.118911 -1.61866,-4.807931 0.8392,-1.234967 2.63008,-2.554235 3.94967,-2.909565 1.4402,-0.387805 3.18871,0.289293 4.05089,1.56867 1.05037,1.55865 0.70526,2.994469 -1.15052,4.786696 -1.73959,1.680017 -3.60317,2.165249 -5.23138,1.36213 z"
       id="path9161" />
    <path
       style="opacity:0.704871;fill:#434d54;fill-opacity:1;stroke-width:0.262271;stroke-linejoin:round;paint-order:markers stroke fill"
       d="m 126.06463,176.38322 c -1.38873,-0.6047 -2.7336,-2.00754 -3.63941,-3.79629 -1.42369,-2.81142 -2.29984,-3.8146 -4.38073,-5.0159 -5.21048,-3.008 -6.64379,-5.2364 -5.19485,-8.07655 1.51789,-2.97532 5.49312,-4.39523 11.63857,-4.15716 3.72266,0.14421 5.0046,0.58908 6.76069,2.34617 1.97987,1.981 2.38072,3.17483 2.50815,7.46997 0.1479,4.98527 -0.49497,7.36031 -2.6147,9.65996 -1.77499,1.92563 -3.22853,2.375 -5.07772,1.5698 z"
       id="path9200" />
    <path
       style="opacity:0.704871;fill:#434d54;fill-opacity:1;stroke-width:0.262271;stroke-linejoin:round;paint-order:markers stroke fill"
       d="m 119.20654,152.86569 c -0.32662,-0.15743 -0.85008,-0.70083 -1.16326,-1.20756 -1.0521,-1.70233 -0.62313,-4.07121 1.06688,-5.89165 2.57995,-2.77908 6.38877,-1.49041 6.36055,2.15202 -0.027,3.49022 -3.53656,6.2619 -6.26417,4.94719 z"
       id="path9239" />
    <path
       style="opacity:0.704871;fill:#434d54;fill-opacity:1;stroke-width:0.262271;stroke-linejoin:round;paint-order:markers stroke fill"
       d="m 129.41387,153.69929 c -0.63687,-0.25565 -1.88166,-2.59658 -1.8861,-3.54694 -0.001,-0.30104 0.359,-1.27091 0.80091,-2.15525 1.33958,-2.68073 3.72217,-4.26481 5.8221,-3.87086 4.26957,0.80098 3.59196,7.09556 -0.9937,9.23099 -1.35967,0.63317 -2.71053,0.75661 -3.74321,0.34206 z"
       id="path9278" />
    <path
       style="opacity:0.704871;fill:#434d54;fill-opacity:1;stroke-width:0.262271;stroke-linejoin:round;paint-order:markers stroke fill"
       d="m 136.77635,160.93961 c -1.11901,-0.50879 -1.48965,-1.29847 -1.4877,-3.16971 0.002,-1.81372 0.46784,-2.88059 1.71953,-3.93718 2.50313,-2.11296 6.03067,-2.2689 7.39102,-0.32673 0.46278,0.66071 0.52913,2.24939 0.15075,3.60926 -0.34737,1.2484 -1.66509,2.78213 -2.95621,3.44081 -1.37171,0.69979 -3.71204,0.88613 -4.81739,0.38355 z"
       id="path9317" />
    <path
       style="opacity:0.704871;fill:#434d54;fill-opacity:1;stroke-width:0.262271;stroke-linejoin:round;paint-order:markers stroke fill"
       d="m 137.57326,171.47182 c -2.5583,-1.26201 -1.92112,-5.46775 1.04471,-6.89566 2.44386,-1.17661 4.06015,-0.94015 5.53225,0.80934 1.47956,1.75836 0.34299,4.63189 -2.32307,5.87328 -1.53997,0.71705 -3.07622,0.79399 -4.25389,0.21304 z"
       id="path9356" />
    <path
       style="opacity:0.704871;fill:#434d54;fill-opacity:1;stroke-width:0.370906;stroke-linejoin:round;paint-order:markers stroke fill"
       d="m 24.726559,175.71157 c -0.692076,-0.46377 -1.758257,-1.74758 -2.369291,-2.85291 -1.432044,-2.5905 -3.948197,-5.11404 -6.358042,-6.3767 -4.702577,-2.46395 -5.275646,-6.55361 -1.284904,-9.1696 2.242962,-1.4703 4.00604,-1.86606 8.313234,-1.86606 4.714912,0 6.525053,0.61667 8.365992,2.85004 1.575486,1.91134 2.012681,3.94232 1.813362,8.42395 -0.151913,3.41572 -0.311089,4.1477 -1.36947,6.29757 -1.749803,3.55436 -4.354248,4.54096 -7.110881,2.69371 z"
       id="path9787" />
    <path
       style="opacity:0.704871;fill:#434d54;fill-opacity:1;stroke-width:0.262271;stroke-linejoin:round;paint-order:markers stroke fill"
       d="m 29.082469,153.49446 c -1.068856,-0.57324 -1.850112,-1.92008 -1.846601,-3.18345 0.0076,-2.75299 3.353749,-6.2912 5.946317,-6.28772 0.986859,0.001 2.323676,0.85844 2.955737,1.8951 1.826966,2.99647 -1.648844,8.05455 -5.534914,8.05455 -0.345594,0 -1.029838,-0.21532 -1.520539,-0.47848 z"
       id="path9826" />
    <path
       style="opacity:0.704871;fill:#434d54;fill-opacity:1;stroke-width:0.262271;stroke-linejoin:round;paint-order:markers stroke fill"
       d="m 36.483595,160.93729 c -1.684314,-0.7618 -2.305648,-2.73978 -1.460675,-4.64999 1.197345,-2.70679 3.299677,-4.14737 6.05255,-4.14737 1.369954,0 1.731373,0.10006 2.255856,0.62455 0.785146,0.78514 1.260539,2.50165 1.031285,3.72368 -0.221493,1.18066 -1.499097,2.87093 -2.93035,3.87686 -1.316429,0.92522 -3.587615,1.18786 -4.948666,0.57227 z"
       id="path9865" />
    <path
       style="opacity:0.704871;fill:#434d54;fill-opacity:1;stroke-width:0.262271;stroke-linejoin:round;paint-order:markers stroke fill"
       d="m 37.110244,171.05226 c -0.995952,-0.6171 -1.866667,-2.46764 -1.656204,-3.51996 0.230923,-1.15461 1.286711,-2.43295 2.687294,-3.25374 0.936635,-0.54891 1.542034,-0.70413 2.746226,-0.70413 1.339157,0 1.647714,0.0987 2.318663,0.74148 1.609111,1.54163 1.577369,3.40163 -0.09047,5.30119 -1.539131,1.75298 -4.392186,2.43478 -6.005509,1.43516 z"
       id="path9904" />
    <path
       style="opacity:0.704871;fill:#434d54;fill-opacity:1;stroke-width:0.262271;stroke-linejoin:round;paint-order:markers stroke fill"
       d="m 18.784274,152.70638 c -1.206211,-0.79538 -1.484751,-1.36726 -1.487519,-3.05411 -0.005,-3.05099 1.643269,-5.09266 4.288491,-5.31202 1.237017,-0.10258 1.473367,-0.035 2.220812,0.63467 1.034444,0.92686 1.409914,2.37292 1.044056,4.02104 -0.702312,3.16378 -3.914788,5.12882 -6.06584,3.71042 z"
       id="path9943" />
    <path
       style="opacity:0.704871;fill:#434d54;fill-opacity:1;stroke-width:0.262271;stroke-linejoin:round;paint-order:markers stroke fill"
       d="m 226.23282,176.23995 c -1.34868,-0.71312 -2.90421,-2.51571 -4.0461,-4.68872 -1.04849,-1.99528 -2.12964,-3.055 -4.45117,-4.36296 -3.774,-2.12626 -5.01762,-3.72645 -4.78419,-6.15586 0.19934,-2.07451 1.11457,-3.17166 3.72466,-4.46501 l 2.22763,-1.10384 3.88035,-0.12455 c 4.41819,-0.14182 5.88739,0.14 7.98975,1.53254 3.03737,2.01187 4.36275,7.14439 3.22948,12.50608 -1.21519,5.74929 -4.45846,8.61354 -7.77041,6.86232 z"
       id="path9982" />
    <path
       style="opacity:0.704871;fill:#434d54;fill-opacity:1;stroke-width:0.262271;stroke-linejoin:round;paint-order:markers stroke fill"
       d="m 219.72169,152.72871 c -1.27762,-0.6541 -1.92434,-1.96991 -1.75048,-3.56152 0.38844,-3.55596 3.99433,-5.9695 6.43792,-4.3091 1.29061,0.87696 1.62701,1.64373 1.45123,3.30788 -0.24048,2.27678 -1.14214,3.68658 -2.9401,4.59703 -1.08165,0.54773 -2.08269,0.53699 -3.19857,-0.0343 z"
       id="path10021" />
    <path
       style="opacity:0.704871;fill:#434d54;fill-opacity:1;stroke-width:0.262271;stroke-linejoin:round;paint-order:markers stroke fill"
       d="m 229.91198,153.51428 c -1.79498,-0.89669 -2.29373,-3.12353 -1.2173,-5.43506 0.93795,-2.01417 3.60827,-4.03448 5.35458,-4.05116 1.48284,-0.0142 2.90224,1.28319 3.20853,2.93265 0.36472,1.96407 -0.12931,3.40177 -1.72665,5.02484 -1.93182,1.96293 -3.75636,2.45931 -5.61916,1.52873 z"
       id="path10060" />
    <path
       style="opacity:0.704871;fill:#434d54;fill-opacity:1;stroke-width:0.262271;stroke-linejoin:round;paint-order:markers stroke fill"
       d="m 237.34308,160.92872 c -1.20174,-0.52303 -1.67021,-1.35485 -1.67021,-2.96566 0,-3.249 2.71823,-5.82313 6.14911,-5.82313 1.2759,0 1.56404,0.10347 2.3701,0.85104 1.18561,1.0996 1.45692,2.07773 1.00532,3.62436 -0.43764,1.49879 -2.21503,3.5584 -3.62257,4.19776 -1.24469,0.56539 -3.08294,0.61562 -4.23175,0.11563 z"
       id="path10099" />
    <path
       style="opacity:0.704871;fill:#434d54;fill-opacity:1;stroke-width:0.262271;stroke-linejoin:round;paint-order:markers stroke fill"
       d="m 238.0296,171.07561 c -1.1608,-0.60115 -1.95098,-2.12044 -1.72615,-3.31888 0.36641,-1.95315 2.61947,-3.90425 4.91249,-4.2541 1.06597,-0.16264 2.9578,0.74503 3.71238,1.78115 1.02435,1.40653 0.25583,3.46498 -1.95971,5.24899 -1.25183,1.00801 -3.55253,1.26088 -4.93901,0.54284 z"
       id="path10138" />
    <path
       style="opacity:0.704871;fill:#434d54;fill-opacity:1;stroke-width:0.262271;stroke-linejoin:round;paint-order:markers stroke fill"
       d="m 326.52915,176.29531 c -1.34868,-0.71313 -2.90421,-2.51571 -4.0461,-4.68873 -1.04849,-1.99528 -2.12964,-3.055 -4.45118,-4.36295 -3.77399,-2.12627 -5.01761,-3.72645 -4.78418,-6.15587 0.19934,-2.07451 1.11456,-3.17166 3.72466,-4.46501 l 2.22763,-1.10383 3.88035,-0.12456 c 4.41819,-0.14181 5.88739,0.14 7.98975,1.53254 3.03737,2.01187 4.36275,7.14439 3.22948,12.50609 -1.21519,5.74929 -4.45847,8.61353 -7.77041,6.86232 z"
       id="path9982-1" />
    <path
       style="opacity:0.704871;fill:#434d54;fill-opacity:1;stroke-width:0.262271;stroke-linejoin:round;paint-order:markers stroke fill"
       d="m 320.01802,152.78406 c -1.27762,-0.65409 -1.92434,-1.96991 -1.75048,-3.56151 0.38844,-3.55597 3.99433,-5.9695 6.43792,-4.30911 1.29061,0.87696 1.62701,1.64373 1.45123,3.30788 -0.24048,2.27678 -1.14214,3.68658 -2.9401,4.59704 -1.08165,0.54772 -2.08269,0.53699 -3.19857,-0.0343 z"
       id="path10021-7" />
    <path
       style="opacity:0.704871;fill:#434d54;fill-opacity:1;stroke-width:0.262271;stroke-linejoin:round;paint-order:markers stroke fill"
       d="m 330.20831,153.56964 c -1.79498,-0.89669 -2.29373,-3.12354 -1.2173,-5.43507 0.93795,-2.01417 3.60827,-4.03448 5.35458,-4.05115 1.48284,-0.0142 2.90223,1.28318 3.20853,2.93265 0.36472,1.96406 -0.12931,3.40176 -1.72665,5.02483 -1.93182,1.96293 -3.75636,2.45931 -5.61916,1.52874 z"
       id="path10060-5" />
    <path
       style="opacity:0.704871;fill:#434d54;fill-opacity:1;stroke-width:0.262271;stroke-linejoin:round;paint-order:markers stroke fill"
       d="m 337.63941,160.98407 c -1.20175,-0.52303 -1.67021,-1.35484 -1.67021,-2.96566 0,-3.249 2.71823,-5.82312 6.14911,-5.82312 1.2759,0 1.56404,0.10346 2.3701,0.85104 1.18561,1.09959 1.45692,2.07772 1.00532,3.62435 -0.43764,1.49879 -2.21503,3.5584 -3.62257,4.19777 -1.24469,0.56539 -3.08294,0.61561 -4.23175,0.11562 z"
       id="path10099-5" />
    <path
       style="opacity:0.704871;fill:#434d54;fill-opacity:1;stroke-width:0.262271;stroke-linejoin:round;paint-order:markers stroke fill"
       d="m 338.32593,171.13097 c -1.1608,-0.60116 -1.95098,-2.12045 -1.72615,-3.31888 0.36641,-1.95315 2.61947,-3.90426 4.91249,-4.25411 1.06597,-0.16264 2.95779,0.74504 3.71238,1.78116 1.02435,1.40653 0.25583,3.46497 -1.95971,5.24898 -1.25183,1.00801 -3.55253,1.26088 -4.93901,0.54285 z"
       id="path10138-2" />
    <path
       style="opacity:0.704871;fill:#434d54;fill-opacity:1;stroke-width:0.370906;stroke-linejoin:round;paint-order:markers stroke fill"
       d="m 326.76375,75.785124 c -1.40931,-0.8182 -2.45414,-1.987524 -3.59545,-4.023873 -1.57269,-2.80602 -2.31327,-3.55445 -5.17373,-5.228574 -3.21158,-1.879622 -4.74765,-3.713118 -4.74765,-5.666897 0,-1.237085 0.24211,-1.691362 1.5833,-2.970799 2.29862,-2.192766 4.7867,-2.986805 9.36744,-2.989501 3.42149,-0.0021 3.91073,0.09026 5.92519,1.117486 2.83088,1.443546 4.16676,3.692028 4.49095,7.558892 0.38183,4.554527 -1.24255,10.055087 -3.43621,11.635798 -1.18197,0.851715 -3.42707,1.140357 -4.41384,0.567468 z"
       id="path10216" />
    <path
       style="opacity:0.704871;fill:#434d54;fill-opacity:1;stroke-width:0.185454;stroke-linejoin:round;paint-order:markers stroke fill"
       d="m 321.00244,52.791803 c -1.42154,-0.498639 -2.32836,-1.477724 -2.72561,-2.942812 -0.33553,-1.237435 0.41658,-3.077821 1.95263,-4.778047 0.92743,-1.026549 1.49693,-1.277384 2.90023,-1.277384 1.02506,0 1.28257,0.07071 1.77912,0.488526 0.90387,0.760556 1.66671,2.234335 1.66397,3.214717 -0.004,1.588487 -1.28958,3.590531 -3.02687,4.715383 -1.1768,0.761944 -1.69016,0.878932 -2.54347,0.579617 z"
       id="path10255" />
    <path
       style="opacity:0.704871;fill:#434d54;fill-opacity:1;stroke-width:0.185454;stroke-linejoin:round;paint-order:markers stroke fill"
       d="m 331.14931,53.613202 c -0.8226,-0.261387 -1.74224,-1.056539 -2.2767,-1.968529 -0.42761,-0.729673 -0.47881,-0.980699 -0.39299,-1.927074 0.1311,-1.445792 0.79013,-2.823824 1.96328,-4.105214 1.26215,-1.378598 2.33299,-1.896354 3.91083,-1.890908 1.48258,0.0051 2.22983,0.365111 2.91876,1.406149 0.449,0.678497 0.5084,0.942898 0.5084,2.263074 0,1.841918 -0.44342,2.83819 -1.9442,4.368225 -1.53809,1.568069 -3.34214,2.281733 -4.68738,1.854277 z"
       id="path10294" />
    <path
       style="opacity:0.704871;fill:#434d54;fill-opacity:1;stroke-width:0.185454;stroke-linejoin:round;paint-order:markers stroke fill"
       d="m 338.54515,60.935324 c -1.72437,-0.634805 -3.01187,-2.336724 -2.80374,-3.706188 0.2826,-1.859495 2.54939,-4.737032 4.2403,-5.382798 1.10007,-0.420118 3.06986,-0.290546 4.1781,0.274834 2.49463,1.272667 2.00669,5.357833 -0.89432,7.487364 -1.80129,1.322268 -3.46349,1.789478 -4.72034,1.326788 z"
       id="path10333" />
    <path
       style="opacity:0.704871;fill:#434d54;fill-opacity:1;stroke-width:0.185454;stroke-linejoin:round;paint-order:markers stroke fill"
       d="m 339.1778,71.090643 c -1.59282,-0.690965 -2.65096,-2.072555 -2.65096,-3.461314 0,-1.878644 3.31915,-4.764074 5.48017,-4.764074 0.79495,0 2.40117,0.809093 2.98599,1.504114 1.64929,1.96007 0.49929,4.844304 -2.53721,6.363401 -1.42299,0.711896 -2.25299,0.802511 -3.27799,0.357873 z"
       id="path10372" />
    <path
       style="opacity:0.704871;fill:#434d54;fill-opacity:1;stroke-width:0.700927;stroke-linejoin:round;paint-order:markers stroke fill"
       d=""
       id="path10606"
       transform="scale(0.26458333)" />
    <path
       style="opacity:0.704871;fill:#434d54;fill-opacity:1;stroke-width:0.700927;stroke-linejoin:round;paint-order:markers stroke fill"
       d=""
       id="path11464"
       transform="scale(0.26458333)" />
  </g>
</svg>
